<svg xmlns="http://www.w3.org/2000/svg" viewBox="0 0 116.02 28.58"><defs><style>.cls-1{font-size:26px;font-family:MyriadPro-Regular, Myriad Pro;}.cls-2{letter-spacing:0.01em;}</style></defs><title>Recurso 3</title><g id="Capa_2" data-name="Capa 2"><g id="Capa_1-2" data-name="Capa 1"><path d="M48.74,2.6c-6.86,0-11.3,8.09-11.38,8.24h0a1,1,0,0,0,0,1h0s3.73,8.31,11.42,8.31a10.8,10.8,0,0,0,1.54-.12V17.28a4.88,4.88,0,0,1-1.54.26c-3,0-5.38-2.76-5.38-6.15s2.41-6.16,5.38-6.16S54.13,8,54.13,11.39a7.11,7.11,0,0,1-.22,1.75h4.84a2.93,2.93,0,0,1,.67.09c.49-.81.74-1.35.75-1.36h0a1,1,0,0,0,0-1C60.08,10.75,55.63,2.6,48.74,2.6Zm0,6.15a2.49,2.49,0,0,0-2.3,2.64,2.33,2.33,0,1,0,4.61,0A2.49,2.49,0,0,0,48.74,8.75Zm4.62,6.15a1.68,1.68,0,0,0-1.54,1.76v6.15a1.67,1.67,0,0,0,1.54,1.75h5.39a1.67,1.67,0,0,0,1.54-1.75v-6a.88.88,0,0,0,0-.36,1.63,1.63,0,0,0-1.52-1.51Zm0,1.76h5.07l-2.76,3.15-.22-.26a.7.7,0,0,0-1.09,0,1,1,0,0,0,0,1.24l0,0,.77.88a.71.71,0,0,0,1.09,0l2.53-2.89v4H53.36Z"/><text class="cls-1" transform="translate(60.35 22.08) scale(0.91 1)">PTICS</text><text class="cls-1" transform="translate(0 21.76) scale(0.91 1)"><tspan class="cls-2">M</tspan><tspan x="21.09" y="0">y</tspan></text></g></g></svg>